<?xml version="1.0" encoding="utf-8"?>
<!-- Generator: Adobe Illustrator 16.0.0, SVG Export Plug-In . SVG Version: 6.00 Build 0)  -->
<!DOCTYPE svg PUBLIC "-//W3C//DTD SVG 1.1//EN" "http://www.w3.org/Graphics/SVG/1.1/DTD/svg11.dtd">
<svg version="1.1" id="Layer_1" xmlns="http://www.w3.org/2000/svg" xmlns:xlink="http://www.w3.org/1999/xlink" x="0px" y="0px"
	 width="62px" height="55.25px" viewBox="0 0 62 55.25" enable-background="new 0 0 62 55.25" xml:space="preserve">
<g id="logo16-nostroke.psd_31_">
	<g id="Группа_2_31_">
		<g id="Группа_1_31_">
			<g id="Фигура_1__x28_копия_x29__2_63_">
				<g>
					<polygon fill="#0083A5" points="45.601,1.896 35.641,54.064 45.244,54.064 55.226,1.896 					"/>
				</g>
			</g>
			<g id="Фигура_1__x28_копия_x29__3_63_">
				<g>
					<polygon fill="#0083A5" points="25.753,15.513 15.923,54.064 25.396,54.064 35.32,15.513 					"/>
				</g>
			</g>
			<g id="Фигура_1__x28_копия_x29__4_61_">
				<g>
					<polygon fill="#0083A5" points="8.613,29.111 2,53.941 11.611,53.941 18.221,29.111 					"/>
				</g>
			</g>
			<g id="Фигура_1__x28_копия_x29__5_63_">
				<g>
					<polygon fill="#00B8E5" points="35.32,15.513 25.753,15.513 35.641,54.064 45.244,54.064 					"/>
				</g>
				<g>
					<polygon fill="none" stroke="#FFFFFF" stroke-width="0.5" stroke-miterlimit="1" points="35.32,15.513 25.753,15.513 
						35.641,54.064 45.244,54.064 					"/>
				</g>
			</g>
			<g id="Фигура_1__x28_копия_x29__6_63_">
				<g>
					<polygon fill="#00B8E5" points="55.226,1.896 45.601,1.896 52.447,29.111 62,29.111 					"/>
				</g>
				<g>
					<polygon fill="none" stroke="#FFFFFF" stroke-width="0.5" stroke-miterlimit="1" points="55.226,1.896 45.601,1.896 
						52.447,29.111 62,29.111 					"/>
				</g>
			</g>
			<g id="Фигура_1__x28_копия_x29__11_63_">
				<g>
					<polygon fill="#00B8E5" points="18.221,29.111 8.613,29.111 15.923,54.064 25.396,54.064 					"/>
				</g>
				<g>
					<polygon fill="none" stroke="#FFFFFF" stroke-width="0.5" stroke-miterlimit="1" points="18.221,29.111 8.613,29.111 
						15.923,54.064 25.396,54.064 					"/>
				</g>
			</g>
		</g>
	</g>
</g>
<path fill="#0083A5" d="M106.072-56.75l-3.746-22.917h4.176l2.268,13.439l1.604-13.439h3.297l2.854,13.395l1.104-13.395h4.131
	l-2.6,22.917H115L112.563-71l-2.256,14.25H106.072z"/>
<path fill="#0083A5" d="M130.109-56.457c-1.941,0-3.396-0.529-4.363-1.59c-0.969-1.059-1.451-2.58-1.451-4.563v-5.61
	c0-1.982,0.488-3.503,1.465-4.563c0.979-1.06,2.424-1.589,4.338-1.589c1.963,0,3.385,0.53,4.271,1.589
	c0.883,1.06,1.324,2.634,1.324,4.724v2.9h-6.898v2.843c0,0.858,0.088,1.506,0.266,1.94c0.176,0.435,0.521,0.651,1.041,0.651
	c0.896,0,1.35-0.649,1.35-1.948v-1.611h4.23v1.406c0,1.758-0.479,3.101-1.438,4.028C133.285-56.923,131.908-56.457,130.109-56.457z
	 M128.792-67.341h2.649v-1.699c0-0.742-0.108-1.274-0.328-1.597c-0.221-0.322-0.563-0.483-1.032-0.483
	c-0.47,0-0.802,0.183-0.996,0.549c-0.194,0.366-0.293,1.008-0.293,1.926V-67.341z"/>
<path fill="#0083A5" d="M146.43-56.457c-1.162,0-2.32-0.527-3.474-1.582v1.289h-4.524l-0.082-22.917h4.524l0.082,6.862
	c1.123-1.045,2.306-1.567,3.545-1.567c0.028,0,0.063,0,0.104,0c0.689,0.01,1.297,0.183,1.809,0.52
	c0.516,0.337,0.902,0.779,1.172,1.326c0.27,0.547,0.469,1.118,0.596,1.714s0.189,1.226,0.189,1.89v6.636
	c0,1.738-0.33,3.146-0.99,4.22C148.723-56.994,147.736-56.457,146.43-56.457z M144.523-59.533c0.012,0,0.021,0,0.029,0
	c0.469,0,0.801-0.225,0.992-0.674c0.195-0.469,0.289-1.1,0.279-1.891v-7.104c0-1.504-0.434-2.256-1.289-2.256
	c-0.029,0-0.063,0-0.088,0c-0.438,0.01-0.938,0.215-1.494,0.615v10.824C143.464-59.704,143.986-59.543,144.523-59.533z"/>
<path fill="#0083A5" d="M179.738-56.457c-1.875,0-3.311-0.506-4.307-1.516c-0.996-1.012-1.494-2.465-1.494-4.358v-6.182
	c0-1.885,0.498-3.333,1.494-4.343c0.996-1.01,2.432-1.516,4.307-1.516c1.887,0,3.334,0.505,4.344,1.516
	c1.014,1.011,1.518,2.458,1.518,4.343v6.182c0,1.886-0.504,3.335-1.518,4.351C183.072-56.965,181.625-56.457,179.738-56.457z
	 M179.753-59.563c0.537,0,0.897-0.207,1.084-0.623c0.187-0.414,0.279-1.021,0.279-1.822v-6.812c0-0.811-0.095-1.423-0.279-1.838
	s-0.547-0.623-1.084-0.623c-0.526,0-0.881,0.212-1.063,0.637c-0.182,0.425-0.271,1.033-0.271,1.824v6.812
	c0,0.791,0.09,1.396,0.271,1.816C178.871-59.772,179.227-59.563,179.753-59.563z"/>
<path fill="#0083A5" d="M188.425-56.75v-17.344h4.527v2.783c1.073-2.002,2.256-3.003,3.545-3.003c0.205,0,0.424,0.034,0.657,0.103
	v4.204c-0.332-0.117-0.688-0.176-1.067-0.176c-0.653,0.029-1.229,0.198-1.724,0.505c-0.491,0.307-0.963,0.793-1.411,1.458v11.47
	H188.425z"/>
<path fill="#0083A5" d="M199.207-56.766l-0.078-23.109h4.496l0.08,12.476l4.248-6.694h5.023l-4.424,7.031l4.361,10.313h-4.859
	l-3.051-8.364L203.7-63.37v6.606h-4.496L199.207-56.766L199.207-56.766z"/>
<text transform="matrix(1 0 0 1 66.6406 51.1953)" fill="#494949" font-family="'Prelo-Medium'" font-size="15" letter-spacing="3">TimeTracker</text>
<text transform="matrix(1 0 0 1 238.9746 -34.8047)" fill="#494949" font-family="'Prelo-ExtraBold'" font-size="15" letter-spacing="3">TimeTracker</text>
<text transform="matrix(1 0 0 1 64.5 35.916)" fill="#0083A5" font-family="'AeroMaticsRegular'" font-size="30">WebWork</text>
<path fill="#0083A5" d="M155.822-56.875l-3.746-22.917h4.176l2.268,13.439l1.604-13.439h3.297l2.854,13.395l1.104-13.395h4.129
	l-2.598,22.917h-4.158l-2.433-14.25l-2.258,14.25H155.822z"/>
</svg>
