<svg xmlns="http://www.w3.org/2000/svg" viewBox="0 0 551.73 614.36"><g data-name="图层 2"><path d="M346.81 453.9c2.44 1 3.95.26 5.54-.25q53.11-17 106.25-34 40.08-12.78 80.23-25.39c7.53-2.37 8.91-1.34 9.09 6.72.51 23.92.75 47.85 1.59 71.76.9 25.74 1.22 51.49 2.15 77.21.55 15.13-1.67 14.07-14.87 15.33-16.48 1.57-33 3.21-49.45 4.78-11.54 1.1-23.1 2.1-34.64 3.19-16.82 1.59-33.63 3.26-50.45 4.82-12 1.12-24.1 2.07-36.14 3.21-16.16 1.52-32.3 3.2-48.46 4.73-12 1.15-24.1 2.11-36.14 3.24-16.15 1.52-32.3 3.17-48.46 4.7-12 1.14-24.09 2.14-36.13 3.28-16.32 1.55-32.63 3.2-48.95 4.75-11.71 1.12-23.44 2.11-35.15 3.22-16.65 1.57-33.29 3.23-49.94 4.8-11.71 1.1-23.42 2.29-35.16 3.11-5.62.39-11.18 1.47-16.87 1.21-3-.14-5.83-.45-7.14-3.42a7.2 7.2 0 0 1 2-8.66c4.35-3.84 8.91-7.44 13.51-11q62.09-47.89 124.21-95.76c18.5-14.32 36.95-28.72 55-43.56 11-9.05 21.31-19 31.94-28.56 9.5-8.55 19.38-16.73 28.41-25.75s17.16-18.51 25.35-28.11c13.69-16 27-32.43 38.37-50.22 12.54-19.54 22.86-40.05 27.3-63.14 4.32-22.44 2.39-44.53-3.35-66.38-4.86-18.47-13.3-35.16-27.17-48.55-14.56-14.06-32.28-21.79-52.36-24.21-15.91-1.94-31.74-1.92-47.49 1.85-23.16 5.54-42.06 18-57.39 35.79-13 15-23.68 31.67-29.78 50.82a188.2 188.2 0 0 0-5 19.25c-.71 3.5-2.61 5.13-5.71 6.08q-39 11.94-78.05 23.92c-10.95 3.35-21.87 6.81-32.88 9.92C2.3 267-1.17 263.8.34 255.32c1.78-9.94 3.66-19.88 5.88-29.72 7.08-31 15.76-61.43 30.44-89.82a251.59 251.59 0 0 1 64.44-79.59c16.77-13.79 34.43-26 54.16-35.2 20-9.29 41.13-14.66 62.9-17.94A311.58 311.58 0 0 1 276.29.28c43.7 1.62 83.09 15 117.77 42.44 23.16 18.3 41.68 39.84 53.71 66.85 9.33 20.92 14.91 42.83 17.79 65.51 1.8 14.17 3.11 28.36 2.87 42.65a262.18 262.18 0 0 1-21.06 98.12c-15.46 36.72-37 69.78-61.73 100.82a204.5 204.5 0 0 1-38.83 37.23z" fill-opacity="0.1" data-name="图层 1"/></g></svg>