<?xml version="1.0" encoding="utf-8"?>
<!-- Generator: Adobe Illustrator 16.0.0, SVG Export Plug-In . SVG Version: 6.00 Build 0)  -->
<!DOCTYPE svg PUBLIC "-//W3C//DTD SVG 1.1//EN" "http://www.w3.org/Graphics/SVG/1.1/DTD/svg11.dtd">
<svg version="1.1" id="Capa_1" xmlns="http://www.w3.org/2000/svg" xmlns:xlink="http://www.w3.org/1999/xlink" x="0px" y="0px"
	 width="35px" height="35px" viewBox="0 0 35 35" enable-background="new 0 0 35 35" xml:space="preserve">
<g>
	<path fill="none" d="M16.247,30.242c0.471,0.053,0.947,0.084,1.429,0.084c1.548,0,3.026-0.288,4.401-0.793
		c-1.702,0.49-3.391,0.759-4.931,0.759C16.842,30.292,16.545,30.265,16.247,30.242z"/>
	<path fill="#F6F6F6" d="M4.608,17.483c0,6.604,5.189,12.049,11.639,12.759c0.298,0.022,0.596,0.05,0.899,0.05
		c1.541,0,3.229-0.269,4.931-0.759c4.678-1.719,8.091-6.08,8.421-11.284h4.061c-0.004,0.09-0.021,0.178-0.026,0.267
		c0.097-0.563,0.142-1.138,0.114-1.724c-0.044-0.3-0.099-0.593-0.149-0.888c0.01,0.111,0.028,0.218,0.036,0.331h-4.035h-0.021
		c-0.252-2.698-1.387-5.251-3.121-7.231l2.723-2.71l0.109-0.101c-0.735-0.798-1.591-1.521-2.557-2.178
		c0.323,0.244,0.64,0.494,0.943,0.76l-2.969,2.856c-1.992-1.664-3.971-2.732-7.346-2.946V0.71c-0.181-0.026-0.346-0.062-0.531-0.085
		c-0.505-0.044-0.999-0.03-1.483,0.015v4.046C10.186,5.203,4.608,10.725,4.608,17.483z"/>
	<path fill="#0083A5" d="M34.559,18.249h-4.061c-0.33,5.204-3.743,9.565-8.421,11.284c-1.375,0.505-2.854,0.793-4.401,0.793
		c-0.482,0-0.958-0.031-1.429-0.084c-6.45-0.71-11.639-6.155-11.639-12.759c0-6.758,5.578-12.28,11.638-12.797V0.64V0.625
		C7.486,1.154,0.558,8.521,0.558,17.495c0,9.323,7.693,16.869,17.014,16.869c8.954,0,16.394-7.208,16.96-15.849
		C34.538,18.427,34.555,18.339,34.559,18.249z"/>
	<path fill="#0083A5" d="M27.355,9.004c1.734,1.98,2.869,4.533,3.121,7.231h0.021h4.035c-0.008-0.113-0.026-0.219-0.036-0.331
		c-0.335-3.885-1.89-7.101-4.272-9.746l-0.037,0.035l-0.109,0.101L27.355,9.004z"/>
	<path fill="#0083A5" d="M25.605,7.631l2.969-2.856c-0.304-0.266-0.62-0.516-0.943-0.76c-2.588-1.952-5.78-3.179-9.371-3.39V0.71
		v3.975C21.635,4.899,23.613,5.967,25.605,7.631z"/>
</g>
</svg>
