<?xml version="1.0" encoding="utf-8"?>
<!-- Generator: Adobe Illustrator 19.0.0, SVG Export Plug-In . SVG Version: 6.00 Build 0)  -->
<svg version="1.1" id="Layer_1" xmlns="http://www.w3.org/2000/svg" xmlns:xlink="http://www.w3.org/1999/xlink" x="0px" y="0px"
	 viewBox="-275 367 60 60" style="enable-background:new -275 367 60 60;" xml:space="preserve">
<style type="text/css">
	.st0{fill:none;}
	.st1{fill:#F6F6F6;}
</style>
<g>
	<path class="st0" d="M-245,375.5c-12.1,0-21.9,9.8-21.9,21.9c0,12.1,9.8,21.9,21.9,21.9c12.1,0,21.9-9.8,21.9-21.9
		C-223.1,385.4-232.9,375.5-245,375.5z M-245.8,412.8c-8.4-0.4-14.9-7.5-14.7-15.8c0.2-8.2,6.9-14.8,15.1-15
		c8.1-0.2,14,5.7,15.3,11.8c-0.1,0-0.1,0-0.2,0c-2.4,0-4.7,0-7.1,0c-0.1,0-0.1,0-0.2-0.1c-1.2-2.2-2.9-3.7-5.4-4.4
		c-4.7-1.3-9.4,1.7-10.4,6.5c-0.7,3.6,1,7.2,4.1,9c1.5,0.8,3,1.2,4.7,1c3.2-0.3,5.6-1.9,7.1-4.8c0.1-0.1,0.1-0.2,0.3-0.2
		c2.3,0,4.6,0,6.9,0c0.1,0,0.1,0,0.2,0C-231.4,407.5-237.8,413.2-245.8,412.8z"/>
	<path class="st1" d="M-217.5,396.1c-0.3-5.7-2.2-10.9-5.7-15.5c-2.4-3.1-5.3-5.6-8.7-7.4c-2.1-1.2-4.4-2-6.7-2.6
		c-1.6-0.4-3.1-0.6-4.7-0.7c-0.2,0-0.5,0-0.7,0c-0.6,0-1.2,0-1.8,0c-0.2,0-0.5,0-0.7,0c-1.8,0.1-3.6,0.4-5.4,0.9
		c-4,1.1-7.6,2.9-10.7,5.6c-2.9,2.5-5.3,5.5-7,9c-1.1,2.3-1.9,4.7-2.3,7.2c-0.2,1.2-0.3,2.5-0.4,3.7c0,0,0,0.1,0,0.1
		c0,0.6,0,1.2,0,1.8c0,0.2,0,0.5,0,0.7c0.1,2.1,0.5,4.2,1.1,6.3c1.1,3.7,2.9,7,5.4,9.9c2.3,2.7,5.1,4.9,8.3,6.6
		c2.1,1.1,4.2,1.9,6.5,2.4c2.5,0.6,5,0.8,7.5,0.7c2.7-0.1,5.4-0.7,7.9-1.6c3-1.1,5.7-2.6,8.1-4.6c4.7-3.9,7.9-8.8,9.3-14.8
		C-217.6,401.4-217.4,398.7-217.5,396.1z M-245,419.3c-12.1,0-21.9-9.8-21.9-21.9c0-12.1,9.8-21.9,21.9-21.9
		c12.1,0,21.9,9.8,21.9,21.9C-223.1,409.5-232.9,419.3-245,419.3z"/>
	<path class="st1" d="M-237.1,400.8c-0.2,0-0.2,0.1-0.3,0.2c-1.5,2.9-3.8,4.5-7.1,4.8c-1.7,0.1-3.2-0.2-4.7-1
		c-3.2-1.8-4.9-5.4-4.1-9c1-4.8,5.7-7.7,10.4-6.5c2.4,0.7,4.2,2.1,5.4,4.4c0.1,0.1,0.1,0.1,0.2,0.1c2.4,0,4.7,0,7.1,0
		c0,0,0.1,0,0.1,0c-1.4-6.1-7.3-12-15.3-11.8c-8.2,0.2-14.8,6.8-15.1,15c-0.2,8.3,6.2,15.4,14.7,15.8c8,0.4,14.4-5.3,15.8-12
		c-0.1,0-0.1,0-0.2,0C-232.4,400.8-234.8,400.8-237.1,400.8z"/>
</g>
</svg>
