<?xml version="1.0" encoding="utf-8"?>
<!-- Generator: Adobe Illustrator 16.0.0, SVG Export Plug-In . SVG Version: 6.00 Build 0)  -->
<!DOCTYPE svg PUBLIC "-//W3C//DTD SVG 1.1//EN" "http://www.w3.org/Graphics/SVG/1.1/DTD/svg11.dtd">
<svg version="1.1" id="Layer_1" xmlns="http://www.w3.org/2000/svg" xmlns:xlink="http://www.w3.org/1999/xlink" x="0px" y="0px"
	 width="503.975px" height="500.975px" viewBox="0 0 503.975 500.975" enable-background="new 0 0 503.975 500.975"
	 xml:space="preserve">
<g>
	<path fill-rule="evenodd" clip-rule="evenodd" fill="#404956" d="M429.718,175.579c-33.81,23.442-53.138,54.432-50.298,96.539
		c2.834,42.035,25.687,70.415,62.801,88.81c-1.618,4.497-3.218,9.216-5.005,13.864c-8.229,21.407-19.233,41.309-32.56,59.959
		c-6.201,8.68-12.383,17.364-19.581,25.265c-7.143,7.839-14.984,14.805-24.561,19.601c-8.444,4.23-17.377,6.037-26.812,5.702
		c-10.287-0.365-19.883-3.321-29.223-7.384c-6.901-3.002-13.774-6.09-21.048-8.129c-11.423-3.202-23.029-3.825-34.786-2.513
		c-10.156,1.134-19.706,4.329-29.046,8.309c-7.152,3.048-14.255,6.237-21.843,8.121c-6.79,1.685-13.656,2.642-20.664,2.005
		c-7.959-0.724-15.173-3.611-21.904-7.797c-9.882-6.146-17.984-14.273-25.394-23.124c-28.233-33.726-48.751-71.551-60.508-114.029
		c-4.093-14.788-7.149-29.773-8.839-45.027c-1.425-12.862-1.843-25.763-1.006-38.681c1.27-19.597,5.278-38.567,13.473-56.512
		c10.968-24.016,27.632-42.934,50.683-56.001c13.306-7.543,27.617-12.02,42.84-13.731c13.678-1.539,26.931,0.207,39.824,4.758
		c8.976,3.168,17.802,6.754,26.751,9.998c4.45,1.613,8.985,3.029,13.555,4.261c6.596,1.777,13.094,0.744,19.379-1.517
		c8.293-2.983,16.513-6.171,24.752-9.301c8.251-3.134,16.604-5.932,25.227-7.871c9.619-2.164,19.325-2.714,29.168-2.002
		c15.242,1.103,29.823,4.627,43.606,11.249c16.487,7.921,29.99,19.393,40.482,34.391
		C429.399,175.097,429.604,175.41,429.718,175.579z"/>
	<path fill-rule="evenodd" clip-rule="evenodd" fill="#404956" d="M344.461,15.469c0.11,3.524,0.43,7.016,0.297,10.491
		c-1.104,28.784-12.619,52.96-32.965,73.007c-9.819,9.675-21.418,16.725-34.524,21.165c-8.484,2.874-17.192,4.23-26.167,3.772
		c-0.943-0.048-1.139-0.411-1.233-1.264c-1.611-14.573,1.173-28.462,6.816-41.81c13.187-31.192,36.244-51.617,68.327-62.03
		c5.561-1.805,11.287-2.867,17.117-3.325C342.822,15.422,343.522,15.469,344.461,15.469z"/>
</g>
</svg>
