<?xml version="1.0" encoding="utf-8"?>
<!-- Generator: Adobe Illustrator 16.0.0, SVG Export Plug-In . SVG Version: 6.00 Build 0)  -->
<!DOCTYPE svg PUBLIC "-//W3C//DTD SVG 1.1//EN" "http://www.w3.org/Graphics/SVG/1.1/DTD/svg11.dtd">
<svg version="1.1" id="Layer_1" xmlns="http://www.w3.org/2000/svg" xmlns:xlink="http://www.w3.org/1999/xlink" x="0px" y="0px"
	 width="1056.105px" height="1050.105px" viewBox="0 0 1056.105 1050.105" enable-background="new 0 0 1056.105 1050.105"
	 xml:space="preserve">
<path fill-rule="evenodd" clip-rule="evenodd" fill="#404956" d="M1034.233,11.233c0,160.78,0,321.561,0,483.197
	c-183.495,1.435-366.775,2.867-550.65,4.304c0-2.375,0-4.158,0-5.941c0-131.801,0.03-263.602-0.125-395.401
	c-0.006-4.738,1.475-6.185,5.88-6.81c37.573-5.332,75.119-10.854,112.672-16.33c37.884-5.524,75.764-11.069,113.646-16.595
	c37.554-5.478,75.109-10.938,112.663-16.413c44.471-6.482,88.938-12.982,133.411-19.454c22.234-3.235,44.478-6.42,66.712-9.659
	c0.954-0.139,1.861-0.591,2.791-0.897C1032.233,11.233,1033.233,11.233,1034.233,11.233z"/>
<path fill-rule="evenodd" clip-rule="evenodd" fill="#404956" d="M18.233,543.233c39.825,0.147,79.651,0.215,119.476,0.458
	c79.984,0.489,159.967,1.073,239.951,1.619c17.163,0.117,34.325,0.237,51.488,0.368c1.145,0.009,2.289,0.12,3.908,0.21
	c0,133.415,0,266.618,0,400.485c-8.828-1.174-17.649-2.313-26.461-3.526c-44.861-6.173-89.721-12.366-134.581-18.549
	c-40.404-5.568-80.807-11.147-121.215-16.695c-39.916-5.479-79.837-10.917-119.754-16.395c-4.281-0.587-8.542-1.313-12.813-1.976
	C18.233,773.9,18.233,658.566,18.233,543.233z"/>
<path fill-rule="evenodd" clip-rule="evenodd" fill="#404956" d="M18.233,155.233c16.17-2.115,32.349-4.169,48.509-6.357
	c35.631-4.828,71.252-9.724,106.877-14.591c35.954-4.913,71.907-9.839,107.863-14.732c30.186-4.108,60.377-8.168,90.564-12.267
	c18.639-2.531,37.271-5.104,55.909-7.637c1.605-0.219,3.231-0.288,5.277-0.464c0,133.436,0,266.491,0,400.298
	c-1.753,0-3.516-0.01-5.277,0.001c-123.959,0.728-247.918,1.454-371.877,2.191c-10.829,0.064-21.657,0.239-32.486,0.271
	c-1.786,0.006-3.573-0.464-5.359-0.714C18.233,385.9,18.233,270.566,18.233,155.233z"/>
<path fill-rule="evenodd" clip-rule="evenodd" fill="#404956" d="M1034.016,1030.407c-13.678-1.912-27.016-3.758-40.348-5.644
	c-36.431-5.15-72.856-10.328-109.288-15.475c-41.374-5.845-82.752-11.664-124.128-17.499
	c-43.849-6.184-87.696-12.368-131.543-18.561c-41.21-5.819-82.419-11.649-123.629-17.473c-5.932-0.839-11.848-1.837-17.805-2.428
	c-2.723-0.271-3.995-1.165-3.724-3.953c0.097-0.99,0.006-1.998,0.005-2.998c-0.199-130.65-0.398-261.302-0.597-391.952
	c-0.003-1.774-0.001-3.549-0.001-5.195c184.039,0,367.425,0,551.057,0C1034.016,709.951,1034.016,870.008,1034.016,1030.407z"/>
</svg>
